<svg width="24" height="24" viewBox="0 0 24 24" fill="none" xmlns="http://www.w3.org/2000/svg">
<path d="M16.57 22.0001C16.8356 22.0017 17.0989 21.9503 17.3444 21.849C17.5899 21.7477 17.8128 21.5985 18 21.4101L20.71 18.7001C20.8963 18.5128 21.0008 18.2593 21.0008 17.9951C21.0008 17.731 20.8963 17.4775 20.71 17.2901L16.71 13.2901C16.5227 13.1039 16.2692 12.9993 16.005 12.9993C15.7408 12.9993 15.4874 13.1039 15.3 13.2901L13.7 14.8801C12.5923 14.5848 11.5663 14.041 10.7 13.2901C9.95115 12.4224 9.40766 11.397 9.11003 10.2901L10.7 8.69014C10.8863 8.50278 10.9908 8.24933 10.9908 7.98514C10.9908 7.72096 10.8863 7.4675 10.7 7.28014L6.70003 3.28014C6.51267 3.09389 6.25922 2.98935 5.99503 2.98935C5.73085 2.98935 5.4774 3.09389 5.29003 3.28014L2.59003 6.00014C2.40167 6.18738 2.25248 6.41027 2.15118 6.65579C2.04988 6.90131 1.9985 7.16455 2.00003 7.43014C2.09076 11.2724 3.62611 14.9394 6.30003 17.7001C9.06075 20.3741 12.7277 21.9094 16.57 22.0001ZM6.00003 5.41014L8.59003 8.00014L7.30003 9.29014C7.17785 9.40459 7.08636 9.54788 7.03395 9.70687C6.98153 9.86586 6.96987 10.0355 7.00003 10.2001C7.3738 11.8705 8.16514 13.4188 9.30003 14.7001C10.5804 15.8365 12.1291 16.628 13.8 17.0001C13.9622 17.034 14.1303 17.0271 14.2891 16.98C14.4479 16.9329 14.5926 16.847 14.71 16.7301L16 15.4101L18.59 18.0001L16.59 20.0001C13.2738 19.9148 10.1095 18.5913 7.72003 16.2901C5.41295 13.8997 4.08564 10.7312 4.00003 7.41014L6.00003 5.41014ZM20 11.0001H22C22.026 9.81114 21.8109 8.6292 21.3678 7.52555C20.9247 6.4219 20.2627 5.41939 19.4217 4.57844C18.5808 3.73749 17.5783 3.07551 16.4746 2.63239C15.371 2.18928 14.189 1.97421 13 2.00014V4.00014C13.9279 3.96804 14.8525 4.12715 15.7163 4.46758C16.5801 4.808 17.3647 5.32246 18.0212 5.97898C18.6777 6.6355 19.1922 7.42005 19.5326 8.28385C19.873 9.14765 20.0321 10.0722 20 11.0001Z" fill="#5C0564"/>
<path d="M13 8C15.1 8 16 8.9 16 11H18C18 7.78 16.22 6 13 6V8Z" fill="#5C0564"/>
</svg>
